<?xml version="1.0" encoding="UTF-8" standalone="no"?>
<svg
   xmlns:dc="http://purl.org/dc/elements/1.1/"
   xmlns:cc="http://creativecommons.org/ns#"
   xmlns:rdf="http://www.w3.org/1999/02/22-rdf-syntax-ns#"
   xmlns:svg="http://www.w3.org/2000/svg"
   xmlns="http://www.w3.org/2000/svg"
   xmlns:sodipodi="http://sodipodi.sourceforge.net/DTD/sodipodi-0.dtd"
   xmlns:inkscape="http://www.inkscape.org/namespaces/inkscape"
   width="86.121735"
   height="87.289703"
   viewBox="0 0 6.6401923 6.7302457"
   id="svg2"
   version="1.1"
   inkscape:version="0.91 r13725"
   sodipodi:docname="war-child.svg">
  <metadata
     id="metadata18">
    <rdf:RDF>
      <cc:Work
         rdf:about="">
        <dc:format>image/svg+xml</dc:format>
        <dc:type
           rdf:resource="http://purl.org/dc/dcmitype/StillImage" />
        <dc:title></dc:title>
      </cc:Work>
    </rdf:RDF>
  </metadata>
  <defs
     id="defs16" />
  <sodipodi:namedview
     pagecolor="#ffffff"
     bordercolor="#666666"
     borderopacity="1"
     objecttolerance="10"
     gridtolerance="10"
     guidetolerance="10"
     inkscape:pageopacity="0"
     inkscape:pageshadow="2"
     inkscape:window-width="1221"
     inkscape:window-height="983"
     id="namedview14"
     showgrid="false"
     fit-margin-top="0"
     fit-margin-left="0"
     fit-margin-right="0"
     fit-margin-bottom="0"
     inkscape:zoom="1"
     inkscape:cx="68.505592"
     inkscape:cy="17.868265"
     inkscape:window-x="1062"
     inkscape:window-y="170"
     inkscape:window-maximized="0"
     inkscape:current-layer="g4" />
  <g
     id="g4"
     style="clip-rule:evenodd;fill-rule:evenodd"
     transform="translate(-91.096062,-91.025431)">
    <path
       d="m 97.73625,97.755677 0,-6.730246 -6.640193,0 0,6.730246 6.640193,0 z"
       id="path8"
       inkscape:connector-curvature="0"
       style="fill:#cc2229" />
    <path
       d="m 97.328282,91.453086 0,2.667328 -5.824218,0 0,-2.667328 5.824218,0 0,5.796188 -5.824218,0 0,-2.701166 5.824218,0 0,-3.095022 z"
       id="path10"
       inkscape:connector-curvature="0" />
    <path
       d="m 96.5939,95.009523 c -0.01606,0.0097 -0.0559,0.05009 -0.05625,0.07036 -0.0026,0.121591 -0.0038,0.240298 0.0057,0.357328 1.53e-4,0.0028 0.0082,-0.0027 0.0084,0 0.01318,0.15465 0.01142,0.291484 0.01973,0.450227 1.53e-4,0.0027 0.007,-0.0024 0.0084,0 0.0097,0.01614 -0.0058,0.0115 -0.0084,0.01407 -0.01111,0.01111 0.01871,0.0071 0.0084,0.014 -0.01501,0.01014 0.0066,0.01871 0,0.05625 -4.76e-4,0.0028 -0.0082,-0.0027 -0.0084,0 -0.0051,0.07263 0.02086,0.180848 -0.07598,0.08444 -0.05778,-0.05727 -0.09875,-0.185876 -0.182874,-0.2026 -0.05407,-0.01072 -0.09945,-0.0099 -0.13508,0.01407 -0.04339,0.02893 -0.113444,0.01539 -0.188526,0.01973 -0.0028,1.54e-4 0.0026,0.0075 0,0.0084 -0.08666,0.03267 -0.222327,0.09298 -0.289808,0.160419 -0.03107,0.03114 -0.03373,0.108804 -0.04219,0.163187 -0.01037,0.0676 -0.03587,0.139407 -0.02811,0.225055 2.38e-4,0.0028 0.0077,-0.0026 0.0084,0 0.0079,0.03181 0.0043,0.05871 0.01973,0.08444 0.01516,0.02549 0.02484,0.04674 0.03656,0.07598 0.0014,0.0037 0.01325,0.01134 0.01407,0.01407 0.0077,0.02588 0.01029,0.08565 0.04218,0.09844 0.03458,0.01391 0.08347,0.01708 0.112548,0.03657 0.04393,0.02939 0.110012,0.0655 0.160419,0.08444 0.01524,0.0057 0.02788,-5.41e-4 0.04218,0.0057 0.0026,0.0011 -0.0026,0.0076 0,0.0085 0.05765,0.01719 0.224081,0.03434 0.281349,0 0.0038,-0.0023 0.01989,-0.02093 0.02253,-0.02253 0.0041,-0.0024 0.01072,0.0032 0.01407,0 0.0032,-0.0032 -0.0033,-0.01072 0,-0.01407 0.0032,-0.0032 0.01072,0.0033 0.014,0 0.0333,-0.03333 0.04498,-0.09625 0.104165,-0.08436 0.0027,5.41e-4 -0.0024,0.007 0,0.0085 0.01364,0.0082 0.03364,0.0069 0.04226,0.01965 0.03013,0.04499 0.106738,0.131416 0.196908,0.0929 0.0026,-0.0011 -0.0026,-0.0075 0,-0.0085 0.02093,-0.0078 0.0623,-0.01407 0.07036,-0.04226 0.01591,-0.05536 -0.01278,-0.121124 -0.02811,-0.174454 -0.0025,-0.0086 -0.01867,-0.03458 -0.0198,-0.04218 -0.01942,-0.125919 0.0089,-0.27359 0.0198,-0.402316 2.38e-4,-0.0028 0.0083,0.0027 0.0084,0 0.0043,-0.250823 0.01263,-0.51112 -0.02819,-0.759721 -0.01056,-0.06304 -0.0058,-0.395259 -0.09843,-0.413582 -0.01532,-0.003 -0.0644,-0.01735 -0.07036,-0.0085 -0.0015,0.0023 0.0025,0.0069 0,0.0084 z m -0.225055,1.266124 c 0.03434,0.02316 0.0076,0.28552 -0.03657,0.329221 -0.01879,0.01867 -0.03754,0.03746 -0.05625,0.05625 -0.06464,0.06424 -0.217843,-0.0014 -0.272967,-0.05625 -0.08483,-0.08405 -0.118161,-0.255463 -0.09282,-0.365787 6.28e-4,-0.0027 0.0073,0.0026 0.0084,0 0.0095,-0.02222 0.0082,-0.04257 0.01973,-0.0619 0.06105,-0.101788 0.197804,-0.144047 0.309493,-0.13508 0.0028,2.38e-4 -0.0023,0.007 0,0.0085 0.006,0.0036 0.01813,0.0012 0.02246,0.0057 0.01174,0.01173 0.0223,0.02514 0.03388,0.03656 0.04257,0.04219 0.0122,0.147634 0.06467,0.182875 z m -1.471492,-1.252051 c -0.01372,0.0082 -0.02604,0.0091 -0.03661,0.01973 -0.06822,0.06775 -0.0069,0.201704 0.02253,0.275695 0.09882,0.247978 0.03508,0.540904 0.07598,0.787829 0.004,0.02405 0.0016,0.03068 0.0085,0.04783 0.03076,0.07766 -0.02923,0.143618 -0.0085,0.233515 6.28e-4,0.0027 0.0073,-0.0026 0.0085,0 0.0071,0.01661 8.3e-4,0.03594 0.0056,0.05625 6.27e-4,0.0027 0.0084,-0.0028 0.0085,0 0.006,0.122644 -0.0138,0.202678 0.04218,0.258893 0.05497,0.05497 0.154182,0.05209 0.210982,0.01407 0.05415,-0.03634 0.04456,-0.142136 0.02819,-0.196987 -8.3e-4,-0.0026 -0.0077,0.0027 -0.0085,0 -0.0154,-0.05146 -0.01278,-0.09762 -0.01965,-0.154727 -3.25e-4,-0.0028 -0.0082,0.0027 -0.0085,0 a 0.83117907,0.83117907 0 0 1 0,-0.118239 c 2.38e-4,-0.0027 0.0082,0.0028 0.0085,0 0.01462,-0.185642 0.04651,-0.389139 -0.02253,-0.562696 -0.0014,-0.0038 -0.0131,-0.01143 -0.01407,-0.01407 -0.02741,-0.07286 -0.0131,-0.150595 -0.03372,-0.219441 -8.31e-4,-0.0026 -0.0076,0.0026 -0.0085,0 -0.0066,-0.02214 3.24e-4,-0.03844 -0.0056,-0.0619 -6.92e-4,-0.0027 -0.0077,0.0026 -0.0085,0 -0.01205,-0.04003 -0.0076,-0.07255 -0.01965,-0.112547 -8.3e-4,-0.0026 -0.0079,0.0027 -0.0085,0 -0.02246,-0.112469 0.01743,-0.33577 -0.182875,-0.275774 -0.0025,7.55e-4 -0.01224,0.01357 -0.01407,0.01407 -0.0063,0.0018 -0.01364,-0.0026 -0.01965,0 -0.0026,0.0012 0.0024,0.0071 -3.8e-5,0.0085 z m -0.253241,0.520516 c 0.02596,-0.129116 -0.18915,-0.06838 -0.225093,-0.0084 -0.0798,0.132701 0.198351,0.14155 0.225093,0.0084 z m -0.07602,0.32922 c -0.0524,-0.05263 -0.146853,-0.03357 -0.177222,0.04218 -0.0014,0.0034 -0.01965,0.02573 -0.01973,0.02819 -0.0035,0.100968 9.05e-4,0.18572 -0.01407,0.275695 -4.77e-4,0.0027 -0.0078,-0.0027 -0.0084,0 -0.01871,0.07477 -0.01813,0.14697 -0.04783,0.216712 -0.0011,0.0025 -0.0076,-0.0027 -0.0084,0 -0.0091,0.03045 -0.0074,0.05559 -0.01969,0.08436 -0.0011,0.0026 -0.0075,-0.0026 -0.0085,0 -0.04959,0.132039 -0.0066,0.408631 0.205446,0.323606 0.04455,-0.01782 0.07387,-0.105139 0.05625,-0.146346 -0.0011,-0.0026 -0.0075,0.0026 -0.0085,0 -0.0081,-0.02156 1.53e-4,-0.02803 -0.01407,-0.04218 -0.04296,-0.04296 -0.0078,-0.10857 0.0085,-0.149152 0.03883,-0.09746 0.08405,-0.201704 0.09009,-0.309495 0.0019,-0.03274 -0.0028,-0.06573 0,-0.09843 2.39e-4,-0.0028 0.0082,0.0028 0.0084,0 a 0.48301244,0.48301244 0 0 0 0,-0.09009 c -2.38e-4,-0.0027 -0.0082,0.0028 -0.0084,0 -0.0081,-0.0812 0.0033,-0.09789 -0.03388,-0.13504 z m -0.759643,0.07036 c -0.118395,-0.07079 -0.285169,-0.02916 -0.416429,-0.04218 -0.0035,-3.89e-4 -0.0062,-0.07925 -0.0057,-0.08444 0.0049,-0.04978 0.02916,-0.09013 0.01411,-0.140692 -8.31e-4,-0.0026 -0.0076,0.0027 -0.0084,0 -0.01427,-0.04775 -0.0094,-0.08861 -0.01969,-0.140616 -5.4e-4,-0.0027 -0.008,0.0027 -0.0084,0 -0.01208,-0.08062 -0.0076,-0.144514 -0.01973,-0.225133 -3.9e-4,-0.0027 -0.008,0.0028 -0.0085,0 -0.0097,-0.05505 -0.005,-0.09684 -0.01969,-0.146269 -8.3e-4,-0.0027 -0.0076,0.0026 -0.0084,0 -0.02269,-0.07582 -0.01555,-0.231994 -0.104126,-0.267313 -0.09157,-0.03668 -0.102099,0.07988 -0.112547,0.132273 -5.84e-4,0.0027 -0.0079,-0.0027 -0.0085,0 -0.0027,0.0138 -0.0027,0.02842 0,0.04218 5.4e-4,0.0027 0.0081,-0.0027 0.0085,0 0.01001,0.07699 0.0108,0.128608 0.03376,0.205445 8.3e-4,0.0026 0.0076,-0.0026 0.0084,0 0.03228,0.107986 0.02822,0.21219 0.0338,0.323529 1.15e-4,0.0028 0.0076,-0.0026 0.0084,0 0.03591,0.120071 0.05965,0.235815 -0.04222,0.33768 -0.01415,0.01415 -0.01216,0.05442 -0.02815,0.07029 -0.02347,0.02354 -0.17578,0.09107 -0.09286,0.146347 0.05618,0.03746 0.04963,0.113443 0.0563,0.1688 3.47e-4,0.0028 0.0069,-0.0023 0.0084,0 0.01022,0.01708 -0.0082,0.01127 -0.0084,0.01407 -0.005,0.06608 0.0018,0.120227 -0.0057,0.182874 -3.24e-4,0.0028 -0.0083,-0.0028 -0.0084,0 -0.0047,0.08643 -0.0124,0.148023 0.05064,0.21106 0.02195,0.02187 0.117147,0.04323 0.146308,0.014 0.165448,-0.166228 -0.01661,-0.462312 0.106894,-0.647135 0.02873,-0.04304 0.07477,-0.04394 0.154767,-0.02811 0.23137,0.04631 0.202639,0.303179 0.174454,0.486755 -4.34e-4,0.0027 -0.01353,0.0028 -0.01407,0.0056 -0.02979,0.148997 0.04424,0.253397 0.191334,0.154806 0.07119,-0.04775 0.06655,-0.166501 0.07598,-0.239167 3.46e-4,-0.0028 0.0083,0.0028 0.0084,0 0.0051,-0.08588 -0.0083,-0.158315 -0.01404,-0.230786 -0.0095,-0.118356 -0.01392,-0.236399 -0.126582,-0.303841 z M 92.576045,95.71852 c -0.173127,-0.01727 -0.327504,0.114652 -0.464261,0.205446 -0.137106,0.09122 -0.108687,0.347738 -0.09847,0.483948 1.93e-4,0.0028 0.0082,-0.0028 0.0084,0 0.0041,0.04729 -0.004,0.09337 0.0057,0.13508 6.27e-4,0.0027 0.0082,-0.0028 0.0085,0 0.0069,0.09266 -0.01022,0.195154 0.06187,0.267236 0.06639,0.06639 0.162057,0.06581 0.247588,0.07598 0.0028,3.9e-4 -0.0028,0.0082 0,0.0085 0.02624,0.0026 0.07243,0.0095 0.08444,-0.0085 0.0069,-0.01037 0.0029,0.01957 0.01404,0.0085 0.01918,-0.01918 0.07816,-0.0084 0.112548,-0.01407 0.0028,-4.77e-4 -0.0027,-0.0078 0,-0.0085 0.05243,-0.01045 0.09812,-0.0048 0.146345,-0.03373 0.04803,-0.02877 0.159757,-0.09633 0.09282,-0.163188 -0.0168,-0.01684 -0.04667,-0.01867 -0.08444,-0.01407 -0.0028,3.25e-4 0.0028,0.0081 0,0.0085 -0.04179,0.0054 -0.101046,-6.92e-4 -0.135041,0.01965 -0.0024,0.0014 0.0026,0.0074 0,0.0085 -0.0563,0.02413 -0.185915,0.0036 -0.225094,-0.02246 -0.09567,-0.06382 -0.06838,-0.124204 -0.07598,-0.309495 -1.16e-4,-0.0028 -0.0082,0.0027 -0.0085,0 -0.01493,-0.159366 -0.01236,-0.308363 0.06471,-0.385513 0.0057,-0.0057 0.0072,-0.02117 0.01404,-0.02811 0.05126,-0.05103 0.157613,-0.02027 0.196987,-0.07879 0.03602,-0.05407 0.164942,0.03708 0.146307,-0.08444 -4.76e-4,-0.003 -0.01294,-0.01143 -0.01407,-0.014 -0.0062,-0.01447 0,-0.02826 -0.01407,-0.0338 -0.02768,-0.01103 -0.04826,-0.0068 -0.0844,-0.01407 -0.0027,-6.27e-4 0.0029,-0.0082 7.7e-5,-0.0085 z m 1.865427,-2.664483 0.0057,0 0,-0.0084 -0.0057,0 0,0.0084 z m 0.202638,-0.331987 0.0085,0 0,0.03657 0.0057,0 0,0.02815 0.0084,0 0,0.02815 0.0057,0 0,0.02815 0.0056,0 0,0.02815 0.0085,0 0,0.02815 0.0057,0 0,0.03376 0.0085,0 0,0.02815 0.0057,0 0,0.02815 0.0085,0 0,0.02815 0.0056,0 0,0.02815 -0.01965,0 0,0.0084 -0.267313,0 0,-0.0084 -0.0056,0 0,-0.01407 0.0056,0 0,-0.01973 0.0084,0 0,-0.02811 0.0057,0 0,-0.02815 0.0085,0 0,-0.02815 0.0057,0 0,-0.02815 0.0085,0 0,-0.02815 0.0057,0 0,-0.02253 0.0085,0 0,-0.02811 0.0056,0 0,-0.02815 0.0085,0 0,-0.02815 0.0057,0 0,-0.02815 0.0085,0 0,-0.02811 0.0057,0 0,-0.01973 0.0085,0 0,-0.02815 0.0057,0 0,-0.02815 0.0085,0 0,-0.02815 0.0056,0 0,-0.02815 0.0085,0 0,-0.02253 0.0057,0 0,-0.02811 0.0085,0 0,-0.02815 0.0057,0 0,-0.02811 0.0085,0 0,-0.0057 0.0057,0 0,0.02815 0.0084,0 0,0.02811 0.0057,0 0,0.02819 0.0084,0 0,0.02815 0.0057,0 0,0.02815 0.0085,0 0,0.03376 0.0057,0 0,0.02815 0.0084,0 0,0.02815 0.0057,0 0,0.02811 -3.89e-4,0 z m 0.244782,-0.745609 0,-0.0057 -0.517748,0 0,0.0057 -0.0084,0 0,0.0225 -0.0057,0 0,0.02815 -0.0084,0 0,0.01969 -0.0057,0 0,0.02253 -0.0084,0 0,0.01969 -0.0057,0 0,0.0225 -0.0085,0 0,0.01969 -0.0056,0 0,0.02815 -0.0084,0 0,0.0225 -0.0057,0 0,0.01969 -0.0084,0 0,0.0225 -0.0057,0 0,0.01973 -0.0084,0 0,0.02811 -0.0057,0 0,0.0225 -0.0085,0 0,0.01969 -0.0057,0 0,0.0225 -0.0084,0 0,0.01973 -0.0056,0 0,0.0225 -0.0084,0 0,0.02815 -0.0057,0 0,0.01973 -0.0084,0 0,0.0225 -0.0057,0 0,0.01973 -0.0085,0 0,0.0225 -0.0057,0 0,0.01969 -0.0084,0 0,0.02253 -0.0056,0 0,0.02815 -0.0085,0 0,0.01969 -0.0057,0 0,0.0225 -0.0084,0 0,0.01969 -0.0056,0 0,0.02253 -0.0085,0 0,0.02815 -0.0056,0 0,0.01969 -0.0085,0 0,0.0225 -0.0057,0 0,0.01969 -0.0084,0 0,0.02253 -0.0057,0 0,0.02815 -0.0084,0 0,0.01969 -0.0057,0 0,0.02253 -0.0084,0 0,0.01965 -0.0057,0 0,0.02253 -0.0084,0 0,0.02815 -0.0057,0 0,0.01973 -0.0085,0 0,0.0225 -0.0057,0 0,0.01969 -0.0084,0 0,0.02253 -0.0057,0 0,0.02811 -0.0084,0 0,0.01973 -0.0057,0 0,0.0225 -0.0084,0 0,0.01969 -0.0057,0 0,0.0225 -0.0084,0 0,0.01969 -0.0056,0 0,0.02815 -0.0084,0 0,0.0225 -0.0056,0 0,0.01973 -0.0084,0 0,0.0225 -0.0057,0 0,0.02815 -0.0084,0 0,0.01973 -0.0057,0 0,0.02246 -0.0084,0 0,0.01973 -0.0057,0 0,0.02815 -0.0084,0 0,0.01407 -0.0056,0 0,0.02815 -0.0085,0 0,0.02253 -0.0057,0 0,0.01969 -0.0085,0 0,0.02253 -0.0056,0 0,0.02815 -0.0084,0 0,0.02253 -0.0057,0 0,0.01969 -0.0084,0 0,0.0225 -0.0057,0 0,0.01973 -0.0084,0 0,0.0281 -0.0057,0 0,0.02253 -0.0085,0 0,0.01969 -0.0056,0 0,0.0225 -0.0084,0 0,0.02815 -0.0056,0 0,0.01965 -0.0085,0 0,0.02253 -0.0056,0 0,0.01969 -0.0084,0 0,0.0225 -0.0057,0 0,0.02815 -0.0085,0 0,0.01404 0.0085,0 0,0.0057 0.407968,0 0,-0.0057 0.0057,0 0,-0.0084 0.0084,0 0,-0.01969 0.0057,0 0,-0.02815 0.0084,0 0,-0.0225 0.0056,0 0,-0.01969 0.0084,0 0,-0.02253 0.0057,0 0,-0.01969 0.0085,0 0,-0.02815 0.0057,0 0,-0.02253 0.0084,0 0,-0.01965 0.0057,0 0,-0.02253 0.0084,0 0,-0.01969 0.0057,0 0,-0.02253 0.0084,0 0,-0.01969 0.0057,0 0,-0.02819 0.0085,0 0,-0.01688 0.498021,0 0,0.01688 0.0057,0 0,0.01969 0.0085,0 0,0.02815 0.0056,0 0,0.02253 0.0085,0 0,0.02815 0.0057,0 0,0.01969 0.0085,0 0,0.02815 0.0057,0 0,0.0225 0.0085,0 0,0.02815 0.0057,0 0,0.01965 0.0085,0 0,0.02253 0.0056,0 0,0.02811 0.0085,0 0,0.01969 0.0057,0 0,0.02815 0.0085,0 0,0.0084 0.0057,0 0,0.0057 0.523322,0 0,-0.0057 0.0057,0 0,-0.02815 -0.0057,0 0,-0.02815 -0.0084,0 0,-0.0225 -0.0057,0 0,-0.01969 -0.0084,0 0,-0.02253 -0.0057,0 0,-0.01969 -0.0085,0 0,-0.0225 -0.0057,0 0,-0.02819 -0.0085,0 0,-0.01965 -0.0057,0 0,-0.02253 -0.0084,0 0,-0.01969 -0.0085,0 0,-0.02253 -0.0056,0 0,-0.01957 -0.0085,0 0,-0.02819 -0.0057,0 0,-0.0225 -0.0085,0 0,-0.02253 -0.0057,0 0,-0.01969 -0.0085,0 0,-0.0225 -0.0057,0 0,-0.01969 -0.0084,0 0,-0.02815 -0.0057,0 0,-0.0225 -0.0085,0 0,-0.01973 -0.0056,0 0,-0.02253 -0.0085,0 0,-0.02815 -0.0057,0 0,-0.01404 -0.0085,0 0,-0.02811 -0.0056,0 0,-0.01969 -0.0085,0 0,-0.02253 -0.0056,0 0,-0.01973 -0.0085,0 0,-0.0225 -0.0056,0 0,-0.02815 -0.0085,0 0,-0.01969 -0.0057,0 0,-0.02253 -0.0085,0 0,-0.01969 -0.0056,0 0,-0.0225 -0.0085,0 0,-0.01969 -0.0056,0 0,-0.02815 -0.0085,0 0,-0.0225 -0.0056,0 0,-0.01969 -0.0085,0 0,-0.02253 -0.0057,0 0,-0.01969 -0.0085,0 0,-0.02253 -0.0057,0 0,-0.01965 -0.0085,0 0,-0.02815 -0.0056,0 0,-0.0225 -0.0085,0 0,-0.01969 -0.0056,0 0,-0.02253 -0.0085,0 0,-0.01969 -0.0057,0 0,-0.02815 -0.0085,0 0,-0.0225 -0.0057,0 0,-0.01973 -0.0085,0 0,-0.02253 -0.0057,0 0,-0.01969 -0.0085,0 0,-0.0225 -0.0056,0 0,-0.02815 -0.0085,0 0,-0.01969 -0.0056,0 0,-0.02253 -0.0085,0 0,-0.01969 -0.0057,0 0,-0.0225 -0.0085,0 0,-0.02815 -0.0056,0 0,-0.01973 -0.0085,0 0,-0.0225 -0.0056,0 0,-0.01969 -0.0085,0 0,-0.0225 -0.0056,0 0,-0.01973 -0.0085,0 0,-0.0281 -0.0057,0 0,-0.0225 -0.0085,0 0,-0.01973 -0.0056,0 0,-0.02245 -0.0085,0 0,-0.01973 -0.0056,0 0,-0.02815 -0.0085,0 0,-0.02246 -0.0057,0 0,-0.01973 -0.0085,0 0,-0.0225 -0.0057,0 0,-0.01969 -0.0085,0 0,-0.02253 -0.0057,0 0,-0.02815 -0.0085,0 0,-0.01969 -0.0057,0 0,-0.0225 -0.0085,0 0,-0.01973 -0.0056,0 0,-0.0225 -0.0077,0 z m -1.671325,0 0,-0.0057 -0.393934,0 0,0.0057 -0.0084,0 0,0.01404 -0.0057,0 0,0.02815 -0.0084,0 0,0.02815 -0.0056,0 0,0.02815 -0.0084,0 0,0.02815 -0.0057,0 0,0.02815 -0.0084,0 0,0.02815 -0.0057,0 0,0.02815 -0.0084,0 0,0.02815 -0.0057,0 0,0.02815 -0.0084,0 0,0.02811 -0.0057,0 0,0.02815 -0.0085,0 0,0.02815 -0.0057,0 0,0.02819 -0.0084,0 0,0.02811 -0.0056,0 0,0.02815 -0.0084,0 0,0.0281 -0.0057,0 0,0.02815 -0.0084,0 0,0.02811 -0.0057,0 0,0.02815 -0.0084,0 0,0.02811 -0.0056,0 0,0.02815 -0.0085,0 0,0.02815 -0.0057,0 0,0.02815 -0.0084,0 0,0.02815 -0.0056,0 0,0.0225 -0.0084,0 0,0.03376 -0.0057,0 0,0.02253 -0.0084,0 0,0.03376 -0.0057,0 0,0.02815 -0.0084,0 0,0.02815 -0.0056,0 0,0.02815 -0.0085,0 0,0.0225 -0.0056,0 0,0.02815 -0.0084,0 0,0.0057 -0.0057,0 0,-0.02815 -0.0085,0 0,-0.02811 -0.0057,0 0,-0.02815 -0.0084,0 0,-0.03388 -0.0056,0 0,-0.02815 -0.0085,0 0,-0.02815 -0.0057,0 0,-0.02815 -0.0084,0 0,-0.04219 -0.0057,0 0,-0.02253 -0.0084,0 0,-0.04219 -0.0057,0 0,-0.01969 -0.0084,0 0,-0.02815 -0.0057,0 0,-0.02815 -0.0084,0 0,-0.03657 -0.0057,0 0,-0.02811 -0.0084,0 0,-0.03376 -0.0057,0 0,-0.02815 -0.0085,0 0,-0.02815 -0.0057,0 0,-0.03657 -0.0084,0 0,-0.02815 -0.0057,0 0,-0.02811 -0.0084,0 0,-0.0338 -0.0057,0 0,-0.02815 -0.0084,0 0,-0.02815 -0.0056,0 0,-0.03657 -0.0085,0 0,-0.02815 -0.0056,0 0,-0.03376 -0.0084,0 0,-0.02811 -0.0057,0 0,-0.02819 -0.0084,0 0,-0.03657 -0.0057,0 0,-0.02815 -0.0084,0 0,-0.0057 -0.478295,0 0,0.0057 -0.0057,0 0,0.02815 0.0057,0 0,0.02815 0.0084,0 0,0.03661 0.0057,0 0,0.02811 0.0084,0 0,0.02815 0.0057,0 0,0.03376 0.0084,0 0,0.02815 0.0057,0 0,0.02815 0.0084,0 0,0.02815 0.0057,0 0,0.03657 0.0084,0 0,0.02815 0.0056,0 0,0.02811 0.0085,0 0,0.03376 0.0057,0 0,0.02815 0.0084,0 0,0.02811 0.0057,0 0,0.03656 0.0084,0 0,0.02815 0.0057,0 0,0.02811 0.0084,0 0,0.02819 0.0057,0 0,0.03376 0.0085,0 0,0.02815 0.0056,0 0,0.02815 0.0084,0 0,0.03657 0.0057,0 0,0.02815 0.0085,0 0,0.02815 0.0057,0 0,0.02815 0.0084,0 0,0.02815 0.0057,0 0,0.03376 0.0085,0 0,0.02811 0.0056,0 0,0.02815 0.0084,0 0,0.02815 0.0057,0 0,0.03657 0.0084,0 0,0.02815 0.0056,0 0,0.02815 0.0084,0 0,0.02815 0.0057,0 0,0.03376 0.0085,0 0,0.02815 0.0057,0 0,0.02815 0.0084,0 0,0.02815 0.0057,0 0,0.02819 0.0084,0 0,0.0281 0.0057,0 0,0.02811 0.0085,0 0,0.03657 0.0056,0 0,0.02815 0.0085,0 0,0.02815 0.0057,0 0,0.02811 0.0085,0 0,0.02815 0.0056,0 0,0.03376 0.0085,0 0,0.02815 0.0056,0 0,0.03091 0.0084,0 0,0.02815 0.0057,0 0,0.02811 0.0085,0 0,0.02819 0.0056,0 0,0.02811 0.0085,0 0,0.02815 0.0057,0 0,0.02815 0.0084,0 0,0.02815 0.0057,0 0,0.03376 0.0085,0 0,0.02815 0.0056,0 0,0.02811 0.0085,0 0,0.02815 0.0056,0 0,0.01407 0.430461,0 0,-0.01407 0.0057,0 0,-0.02815 0.0085,0 0,-0.02811 0.0057,0 0,-0.02815 0.0084,0 0,-0.02815 0.0057,0 0,-0.02815 0.0084,0 0,-0.02819 0.0057,0 0,-0.02815 0.0084,0 0,-0.02815 0.0057,0 0,-0.02815 0.0084,0 0,-0.02815 0.0056,0 0,-0.02815 0.0085,0 0,-0.02807 0.0057,0 0,-0.02815 0.0084,0 0,-0.03656 0.0057,0 0,-0.02811 0.0084,0 0,-0.02815 0.0057,0 0,-0.02815 0.0084,0 0,-0.02815 0.0057,0 0,-0.02815 0.0084,0 0,-0.02815 0.0057,0 0,-0.02815 0.0084,0 0,-0.02815 0.0057,0 0,-0.02815 0.0085,0 0,-0.02811 0.0056,0 0,-0.02815 0.0085,0 0,-0.02815 0.0057,0 0,-0.02815 0.0084,0 0,-0.02815 0.0056,0 0,-0.02815 0.0085,0 0,-0.02815 0.0056,0 0,-0.02807 0.0085,0 0,-0.02815 0.0057,0 0,-0.02815 0.0084,0 0,0.0085 0.0057,0 0,0.02815 0.0084,0 0,0.02815 0.0056,0 0,0.02811 0.0085,0 0,0.02815 0.0056,0 0,0.02815 0.0084,0 0,0.02815 0.0056,0 0,0.03376 0.0085,0 0,0.0225 0.0056,0 0,0.03376 0.0084,0 0,0.02815 0.0057,0 0,0.02819 0.0084,0 0,0.02811 0.0057,0 0,0.02811 0.0084,0 0,0.03657 0.0057,0 0,0.02815 0.0084,0 0,0.02815 0.0057,0 0,0.0281 0.0085,0 0,0.02815 0.0056,0 0,0.02815 0.0084,0 0,0.02815 0.0057,0 0,0.02815 0.0084,0 0,0.02815 0.0057,0 0,0.02815 0.0084,0 0,0.02815 0.0057,0 0,0.02811 0.0084,0 0,0.03661 0.0057,0 0,0.02815 0.0084,0 0,0.02815 0.0057,0 0,0.02815 0.0084,0 0,0.02815 0.0057,0 0,0.02815 0.0085,0 0,0.02815 0.0056,0 0,0.01969 0.450188,0 0,-0.01407 0.0084,0 0,-0.02815 0.0057,0 0,-0.02811 0.0084,0 0,-0.02815 0.0057,0 0,-0.02815 0.0084,0 0,-0.02815 0.0057,0 0,-0.02822 0.0084,0 0,-0.02815 0.0057,0 0,-0.02815 0.0084,0 0,-0.02815 0.0057,0 0,-0.02815 0.0084,0 0,-0.02815 0.0057,0 0,-0.03657 0.0084,0 0,-0.02815 0.0057,0 0,-0.02806 0.0084,0 0,-0.02811 0.0056,0 0,-0.02815 0.0084,0 0,-0.02815 0.0057,0 0,-0.02815 0.0085,0 0,-0.02815 0.0057,0 0,-0.02815 0.0084,0 0,-0.02815 0.0057,0 0,-0.02815 0.0085,0 0,-0.02815 0.0057,0 0,-0.02811 0.0084,0 0,-0.02815 0.0056,0 0,-0.02815 0.0085,0 0,-0.02815 0.0057,0 0,-0.02815 0.0084,0 0,-0.03376 0.0056,0 0,-0.02815 0.0085,0 0,-0.02815 0.0057,0 0,-0.02815 0.0084,0 0,-0.02815 0.0057,0 0,-0.02807 0.0084,0 0,-0.02815 0.0057,0 0,-0.02815 0.0084,0 0,-0.02815 0.0056,0 0,-0.02815 0.0085,0 0,-0.02815 0.0057,0 0,-0.03657 0.0085,0 0,-0.01969 0.0056,0 0,-0.03652 0.0084,0 0,-0.01969 0.0057,0 0,-0.03657 0.0084,0 0,-0.02815 0.0057,0 0,-0.02811 0.0084,0 0,-0.01973 0.0057,0 0,-0.03657 0.0084,0 0,-0.02815 0.0057,0 0,-0.0281 0.0084,0 0,-0.02819 0.0057,0 0,-0.02815 0.0084,0 0,-0.02815 0.0057,0 0,-0.02806 0.0084,0 0,-0.02815 0.0057,0 0,-0.02815 0.0084,0 0,-0.02815 0.0057,0 0,-0.02815 0.0084,0 0,-0.02815 0.0057,0 0,-0.02815 0.0085,0 0,-0.02815 0.0057,0 0,-0.02815 0.0084,0 0,-0.03376 0.0057,0 0,-0.0084 -0.0057,0 0,-0.0057 -0.40867,0 0,0.01408 -0.0084,0 0,0.02815 -0.0057,0 0,0.02815 -0.0084,0 0,0.02819 -0.0057,0 0,0.02811 -0.0084,0 0,0.02815 -0.0057,0 0,0.02815 -0.0084,0 0,0.02815 -0.0057,0 0,0.02815 -0.0084,0 0,0.02815 -0.0057,0 0,0.02815 -0.0084,0 0,0.02815 -0.0057,0 0,0.02815 -0.0085,0 0,0.02811 -0.0056,0 0,0.02819 -0.0084,0 0,0.02815 -0.0057,0 0,0.03376 -0.0085,0 0,0.02253 -0.0057,0 0,0.03376 -0.0084,0 0,0.02815 -0.0057,0 0,0.02811 -0.0085,0 0,0.02815 -0.0057,0 0,0.02815 -0.0084,0 0,0.02815 -0.0055,0 0,0.02815 -0.0084,0 0,0.02815 -0.0056,0 0,0.02815 -0.0085,0 0,0.02795 -0.0056,0 0,0.02815 -0.0085,0 0,0.03657 -0.0057,0 0,0.01969 -0.0084,0 0,0.03657 -0.0056,0 0,0.01969 -0.0085,0 0,0.02815 -0.0057,0 0,-0.0057 -0.0084,0 0,-0.02815 -0.0057,0 0,-0.02815 -0.0084,0 0,-0.02811 -0.0057,0 0,-0.03657 -0.0085,0 0,-0.02815 -0.0056,0 0,-0.03376 -0.0084,0 0,-0.02815 -0.0057,0 0,-0.02815 -0.0084,0 0,-0.02806 -0.0057,0 0,-0.03657 -0.0084,0 0,-0.02815 -0.0056,0 0,-0.02815 -0.0084,0 0,-0.0338 -0.0057,0 0,-0.02811 -0.0085,0 0,-0.02815 -0.0056,0 0,-0.03657 -0.0085,0 0,-0.02815 -0.0057,0 0,-0.0338 -0.0084,0 0,-0.02811 -0.0057,0 0,-0.0281 -0.0085,0 0,-0.02815 -0.0057,0 0,-0.03652 -0.0083,0 0,-0.02815 -0.0056,0 0,-0.0338 -0.0085,0 0,-0.0281 -0.0057,0 0,-0.02815 -0.0084,0 0,-0.03657 -0.0056,0 0,-0.02815 -0.0085,0 0,-0.02815 -0.0056,0 0,-0.03376 -0.0084,0 0,-0.0225 -0.0057,0 z m 3.058455,0.388242 -0.01407,0 0,-0.0084 -0.01407,0 0,0.0084 -0.01973,0 0,-0.0084 -0.0084,0 0,0.0084 -0.0057,0 0,-0.0084 -0.0085,0 0,0.0084 -0.014,0 0,-0.0084 -0.02819,0 0,0.0084 -0.01407,0 0,-0.0084 -0.02819,0 0,0.0084 -0.02811,0 0,-0.0084 -0.0057,0 0,0.0084 -0.09274,0 0,0.337679 0.0084,0 0,0.0057 0.351675,0 0,-0.0057 0.04218,0 0,-0.0085 0.01407,0 0,-0.0057 0.01407,0 0,-0.0084 0.01408,0 0,-0.0057 0.0057,0 0,-0.0085 0.0085,0 0,-0.0057 0.0057,0 0,-0.0085 0.0084,0 0,-0.0055 0.0057,0 0,-0.01407 0.0085,0 0,-0.01407 0.0057,0 0,-0.01407 0.0085,0 0,-0.03657 0.0057,0 0,-0.04787 -0.0057,0 0,-0.04218 -0.0085,0 0,-0.02815 -0.0057,0 0,-0.01404 -0.0085,0 0,-0.0085 -0.0057,0 0,-0.01404 -0.0084,0 0,-0.0057 -0.0057,0 0,-0.0085 -0.0085,0 0,-0.0057 -0.01407,0 0,-0.0084 -0.01407,0 0,-0.0056 -0.014,0 0,-0.0085 -0.01973,0 0,-0.0057 -0.05634,0 0,-0.0084 -0.0084,0 0,0.0084 -0.03372,0 0,-0.0084 -0.0085,0 0,0.0084 z m 0.647136,-0.126582 0,-0.01407 -0.0057,0 0,-0.01407 -0.0085,0 0,-0.01407 -0.0057,0 0,-0.0084 -0.0085,0 0,-0.0057 -0.0057,0 0,-0.01407 -0.0084,0 0,-0.0084 -0.0057,0 0,-0.0056 -0.0084,0 0,-0.0085 -0.0057,0 0,-0.0056 -0.0085,0 0,-0.0084 -0.0057,0 0,-0.0057 -0.0084,0 0,-0.0085 -0.0057,0 0,-0.0056 -0.0084,0 0,-0.0084 -0.0057,0 0,-0.0057 -0.014,0 0,-0.0084 -0.0085,0 0,-0.0057 -0.0057,0 0,-0.0084 -0.01407,0 0,-0.0056 -0.0084,0 0,-0.0085 -0.01407,0 0,-0.0056 -0.01407,0 0,-0.0085 -0.01407,0 0,-0.0057 -0.014,0 0,-0.0084 -0.01407,0 0,-0.0057 -0.01973,0 0,-0.0084 -0.01407,0 0,-0.0057 -0.02819,0 0,-0.0084 -0.02245,0 0,-0.0056 -0.01973,0 0,-0.0085 -0.03657,0 0,-0.0056 -0.04218,0 0,-0.0084 -0.05625,0 0,-0.0057 -0.08444,0 0,-0.0084 -0.863809,0 0,0.0084 -0.0084,0 0,0.132234 -0.0057,0 0,0.02815 0.0057,0 0,0.239128 -0.0057,0 0,0.02253 0.0057,0 0,0.02811 -0.0057,0 0,0.0057 0.0057,0 0,0.04222 -0.0057,0 0,0.0084 0.0057,0 0,0.02815 -0.0057,0 0,0.01404 0.0057,0 0,0.0057 -0.0057,0 0,0.01407 0.0057,0 0,0.01404 -0.0057,0 0,0.0085 0.0057,0 0,0.01969 -0.0057,0 0,0.0084 0.0057,0 0,0.0056 -0.0057,0 0,0.03657 0.0057,0 0,0.03376 -0.0057,0 0,0.02815 0.0057,0 0,0.0085 -0.0057,0 0,0.02815 0.0057,0 0,0.01407 -0.0057,0 0,0.02815 0.0057,0 0,0.0057 -0.0057,0 0,0.03657 0.0057,0 0,0.0057 -0.0057,0 0,0.0085 0.0057,0 0,0.0056 -0.0057,0 0,0.191334 0.0057,0 0,0.0057 -0.0057,0 0,0.06471 0.0057,0 0,0.0057 -0.0057,0 0,0.02811 0.0057,0 0,0.01407 -0.0057,0 0,0.0085 0.0057,0 0,0.01973 -0.0057,0 0,0.09843 0.0057,0 0,0.01407 -0.0057,0 0,0.0225 0.0057,0 0,0.0057 -0.0057,0 0,0.0225 0.0057,0 0,0.0057 -0.0057,0 0,0.04222 0.0057,0 0,0.0085 -0.0057,0 0,0.04222 0.0057,0 0,0.01969 -0.0057,0 0,0.303841 0.0057,0 0,0.0085 -0.0057,0 0,0.0055 0.0057,0 0,0.02253 0.0084,0 0,0.0057 0.399586,0 0,-0.0057 0.0084,0 0,0.0057 0.01973,0 0,-0.0057 0.02253,0 0,0.0057 0.01407,0 0,-0.0057 0.014,0 0,-0.0084 0.0057,0 0,-0.675321 0.233436,0 0,0.01969 0.0057,0 0,0.02253 0.0084,0 0,0.01973 0.0057,0 0,0.01404 0.0085,0 0,0.0225 0.0057,0 0,0.01969 0.0084,0 0,0.0225 0.0057,0 0,0.01973 0.0085,0 0,0.02253 0.0056,0 0,0.01969 0.0085,0 0,0.0225 0.0057,0 0,0.01407 0.0084,0 0,0.01969 0.0057,0 0,0.02253 0.0084,0 0,0.01969 0.0057,0 0,0.02253 0.0084,0 0,0.01969 0.0057,0 0,0.0225 0.0085,0 0,0.02253 0.0057,0 0,0.01965 0.0084,0 0,0.02253 0.0057,0 0,0.01407 0.0085,0 0,0.01965 0.0057,0 0,0.02253 0.0084,0 0,0.01969 0.0057,0 0,0.0225 0.0084,0 0,0.01969 0.0057,0 0,0.02253 0.0085,0 0,0.01965 0.0057,0 0,0.02253 0.0085,0 0,0.01969 0.0057,0 0,0.01407 0.0085,0 0,0.02253 0.0057,0 0,0.01404 0.03657,0 0,0.0057 0.01407,0 0,-0.0057 0.014,0 0,0.0057 0.01407,0 0,-0.0057 0.0057,0 0,0.0057 0.0084,0 0,-0.0057 0.0057,0 0,0.0057 0.0085,0 0,-0.0057 0.02811,0 0,0.0057 0.0057,0 0,-0.0057 0.02246,0 0,0.0057 0.0057,0 0,-0.0057 0.05625,0 0,0.0057 0.02246,0 0,-0.0057 0.01407,0 0,0.0057 0.01407,0 0,-0.0057 0.24482,0 0,-0.02815 -0.0057,0 0,-0.02253 -0.0085,0 0,-0.01404 -0.0057,0 0,-0.01969 -0.0084,0 0,-0.02253 -0.0057,0 0,-0.01404 -0.0084,0 0,-0.01969 -0.0058,0 0,-0.01407 -0.0084,0 0,-0.0225 -0.0057,0 0,-0.01969 -0.0085,0 0,-0.01407 -0.0057,0 0,-0.02253 -0.0085,0 0,-0.01404 -0.0057,0 0,-0.01973 -0.0084,0 0,-0.01407 -0.0057,0 0,-0.0225 -0.0084,0 0,-0.01407 -0.0057,0 0,-0.0225 -0.0085,0 0,-0.01969 -0.0057,0 0,-0.01407 -0.0084,0 0,-0.0225 -0.0057,0 0,-0.01407 -0.0084,0 0,-0.01969 -0.0057,0 0,-0.0225 -0.0084,0 0,-0.01407 -0.0057,0 0,-0.01969 -0.0085,0 0,-0.01404 -0.0057,0 0,-0.02253 -0.0084,0 0,-0.01404 -0.0057,0 0,-0.01973 -0.0084,0 0,-0.0225 -0.0057,0 0,-0.01408 -0.0084,0 0,-0.01969 -0.0057,0 0,-0.01407 -0.0085,0 0,-0.0225 -0.0057,0 0,-0.01407 -0.0085,0 0,-0.01969 -0.0057,0 0,-0.0225 -0.0084,0 0,-0.01407 -0.0057,0 0,-0.01969 -0.0084,0 0,-0.01407 0.0084,0 0,-0.0084 0.01973,0 0,-0.0057 0.0085,0 0,-0.0085 0.01407,0 0,-0.0057 0.0057,0 0,-0.0084 0.01407,0 0,-0.0057 0.0084,0 0,-0.0085 0.01408,0 0,-0.0056 0.0057,0 0,-0.0084 0.0085,0 0,-0.0057 0.0057,0 0,-0.0085 0.0084,0 0,-0.0057 0.0057,0 0,-0.0084 0.0084,0 0,-0.0057 0.0057,0 0,-0.01407 0.0084,0 0,-0.0084 0.0057,0 0,-0.0057 0.0085,0 0,-0.0084 0.0057,0 0,-0.01407 0.0084,0 0,-0.0056 0.0057,0 0,-0.01407 0.0084,0 0,-0.01407 0.0057,0 0,-0.0085 0.0085,0 0,-0.01404 0.0057,0 0,-0.01407 0.0085,0 0,-0.01969 0.0057,0 0,-0.01407 0.0084,0 0,-0.0225 0.0057,0 0,-0.01411 0.0084,0 0,-0.01969 0.0057,0 0,-0.02815 0.0084,0 0,-0.02815 0.0057,0 0,-0.02811 0.0085,0 0,-0.05068 0.0057,0 0,-0.07598 0.0085,0 0,-0.03657 -0.0085,0 0,-0.09847 -0.0057,0 0,-0.0338 -0.0085,0 0,-0.02807 -0.0057,0 0,-0.02253 -0.0084,0 0,-0.01969 -0.0057,0 0,-0.01407 -0.0084,0 0,-0.01407 -0.0057,0 0,-0.01407 -0.0083,0 0,3.9e-5 z"
       id="path12"
       inkscape:connector-curvature="0"
       style="fill:#ffffff" />
  </g>
</svg>
